<mxfile host="app.diagrams.net" modified="2023-12-26T23:01:50.971Z" agent="Mozilla/5.0 (Macintosh; Intel Mac OS X 10_15_7) AppleWebKit/537.36 (KHTML, like Gecko) Chrome/120.0.0.0 Safari/537.36" etag="GigJjku7kSu3g50XYtHa" version="22.1.12" type="github">
  <diagram name="PÃ¡gina-1" id="xZS8BL_NoIQwC4L6zzLi">
    <mxGraphModel dx="1434" dy="820" grid="1" gridSize="10" guides="1" tooltips="1" connect="1" arrows="1" fold="1" page="1" pageScale="1" pageWidth="827" pageHeight="1169" math="0" shadow="0">
      <root>
        <mxCell id="0" />
        <mxCell id="1" parent="0" />
        <mxCell id="T-9_2SV2qnyJwQLxtP7A-1" value="" style="html=1;verticalLabelPosition=bottom;align=center;labelBackgroundColor=#ffffff;verticalAlign=top;strokeWidth=2;strokeColor=#0080F0;shadow=0;dashed=0;shape=mxgraph.ios7.icons.user;" vertex="1" parent="1">
          <mxGeometry x="373" y="40" width="81" height="80" as="geometry" />
        </mxCell>
        <mxCell id="T-9_2SV2qnyJwQLxtP7A-2" value="DNS - dominio.com" style="rounded=0;whiteSpace=wrap;html=1;" vertex="1" parent="1">
          <mxGeometry x="249" y="160" width="331" height="50" as="geometry" />
        </mxCell>
        <mxCell id="T-9_2SV2qnyJwQLxtP7A-3" value="CDN - WAF" style="rounded=0;whiteSpace=wrap;html=1;" vertex="1" parent="1">
          <mxGeometry x="249" y="210" width="161" height="40" as="geometry" />
        </mxCell>
        <mxCell id="T-9_2SV2qnyJwQLxtP7A-4" value="API Gate Way" style="rounded=0;whiteSpace=wrap;html=1;" vertex="1" parent="1">
          <mxGeometry x="249" y="250" width="161" height="60" as="geometry" />
        </mxCell>
        <mxCell id="T-9_2SV2qnyJwQLxtP7A-5" value="AUTH" style="rounded=0;whiteSpace=wrap;html=1;" vertex="1" parent="1">
          <mxGeometry x="410" y="250" width="170" height="60" as="geometry" />
        </mxCell>
        <mxCell id="T-9_2SV2qnyJwQLxtP7A-6" value="WAF" style="rounded=0;whiteSpace=wrap;html=1;" vertex="1" parent="1">
          <mxGeometry x="410" y="210" width="170" height="40" as="geometry" />
        </mxCell>
        <mxCell id="T-9_2SV2qnyJwQLxtP7A-8" value="Balanceador de Aplicaciones" style="rounded=0;whiteSpace=wrap;html=1;" vertex="1" parent="1">
          <mxGeometry x="249" y="310" width="331" height="60" as="geometry" />
        </mxCell>
        <mxCell id="T-9_2SV2qnyJwQLxtP7A-13" value="Autoescalamiento" style="rounded=0;whiteSpace=wrap;html=1;" vertex="1" parent="1">
          <mxGeometry x="60" y="400" width="730" height="160" as="geometry" />
        </mxCell>
        <mxCell id="T-9_2SV2qnyJwQLxtP7A-9" value="ZONA AZ-1" style="rounded=0;whiteSpace=wrap;html=1;" vertex="1" parent="1">
          <mxGeometry x="249" y="370" width="161" height="160" as="geometry" />
        </mxCell>
        <mxCell id="T-9_2SV2qnyJwQLxtP7A-10" value="ZONA AZ-2" style="rounded=0;whiteSpace=wrap;html=1;" vertex="1" parent="1">
          <mxGeometry x="411" y="370" width="169" height="160" as="geometry" />
        </mxCell>
        <mxCell id="T-9_2SV2qnyJwQLxtP7A-11" value="" style="image;aspect=fixed;perimeter=ellipsePerimeter;html=1;align=center;shadow=0;dashed=0;spacingTop=3;image=img/lib/active_directory/generic_server.svg;" vertex="1" parent="1">
          <mxGeometry x="364" y="469" width="28.000000000000004" height="50" as="geometry" />
        </mxCell>
        <mxCell id="T-9_2SV2qnyJwQLxtP7A-12" value="" style="image;aspect=fixed;perimeter=ellipsePerimeter;html=1;align=center;shadow=0;dashed=0;spacingTop=3;image=img/lib/active_directory/generic_server.svg;" vertex="1" parent="1">
          <mxGeometry x="540" y="469" width="28.000000000000004" height="50" as="geometry" />
        </mxCell>
        <mxCell id="T-9_2SV2qnyJwQLxtP7A-14" value="Autoescalamiento&lt;br&gt;Min: 2&lt;br&gt;Deseada: 2&lt;br&gt;Max: 8" style="text;html=1;strokeColor=none;fillColor=none;align=center;verticalAlign=middle;whiteSpace=wrap;rounded=0;" vertex="1" parent="1">
          <mxGeometry x="610" y="439" width="150" height="80" as="geometry" />
        </mxCell>
        <mxCell id="T-9_2SV2qnyJwQLxtP7A-15" value="Observabilidad" style="ellipse;whiteSpace=wrap;html=1;fillColor=#dae8fc;strokeColor=#6c8ebf;" vertex="1" parent="1">
          <mxGeometry x="60" y="165" width="120" height="40" as="geometry" />
        </mxCell>
        <mxCell id="T-9_2SV2qnyJwQLxtP7A-16" value="Compliance" style="ellipse;whiteSpace=wrap;html=1;fillColor=#dae8fc;strokeColor=#6c8ebf;" vertex="1" parent="1">
          <mxGeometry x="60" y="220" width="120" height="40" as="geometry" />
        </mxCell>
        <mxCell id="T-9_2SV2qnyJwQLxtP7A-17" value="Auditoria" style="ellipse;whiteSpace=wrap;html=1;fillColor=#dae8fc;strokeColor=#6c8ebf;" vertex="1" parent="1">
          <mxGeometry x="60" y="280" width="120" height="40" as="geometry" />
        </mxCell>
        <mxCell id="T-9_2SV2qnyJwQLxtP7A-18" value="Cifrado" style="ellipse;whiteSpace=wrap;html=1;fillColor=#dae8fc;strokeColor=#6c8ebf;" vertex="1" parent="1">
          <mxGeometry x="60" y="340" width="120" height="40" as="geometry" />
        </mxCell>
        <mxCell id="T-9_2SV2qnyJwQLxtP7A-19" value="&lt;h1&gt;&lt;br&gt;&lt;/h1&gt;" style="text;html=1;strokeColor=none;fillColor=none;spacing=5;spacingTop=-20;whiteSpace=wrap;overflow=hidden;rounded=0;" vertex="1" parent="1">
          <mxGeometry x="620" y="160" width="190" height="120" as="geometry" />
        </mxCell>
        <mxCell id="T-9_2SV2qnyJwQLxtP7A-20" value="&lt;font style=&quot;font-size: 16px;&quot;&gt;Metricas de monitoreo&lt;br&gt;&lt;br&gt;USER &amp;gt; 1000 +&amp;nbsp; 1&lt;br&gt;USER &amp;gt; 100000 + 4&lt;/font&gt;" style="text;html=1;strokeColor=none;fillColor=none;align=center;verticalAlign=middle;whiteSpace=wrap;rounded=0;strokeWidth=2;" vertex="1" parent="1">
          <mxGeometry x="610" y="160" width="180" height="185" as="geometry" />
        </mxCell>
        <mxCell id="T-9_2SV2qnyJwQLxtP7A-21" value="" style="outlineConnect=0;dashed=0;verticalLabelPosition=bottom;verticalAlign=top;align=center;html=1;shape=mxgraph.aws3.ami;fillColor=#F58534;gradientColor=none;" vertex="1" parent="1">
          <mxGeometry x="110" y="440" width="60" height="63" as="geometry" />
        </mxCell>
        <mxCell id="T-9_2SV2qnyJwQLxtP7A-22" value="AMI" style="text;html=1;strokeColor=none;fillColor=none;align=center;verticalAlign=middle;whiteSpace=wrap;rounded=0;" vertex="1" parent="1">
          <mxGeometry x="110" y="519" width="60" height="30" as="geometry" />
        </mxCell>
        <mxCell id="T-9_2SV2qnyJwQLxtP7A-23" value="" style="strokeWidth=2;html=1;shape=mxgraph.flowchart.database;whiteSpace=wrap;" vertex="1" parent="1">
          <mxGeometry x="300" y="600" width="80" height="80" as="geometry" />
        </mxCell>
        <mxCell id="T-9_2SV2qnyJwQLxtP7A-37" value="" style="html=1;verticalLabelPosition=bottom;align=center;labelBackgroundColor=#ffffff;verticalAlign=top;strokeWidth=2;strokeColor=#0080F0;shadow=0;dashed=0;shape=mxgraph.ios7.icons.storage;" vertex="1" parent="1">
          <mxGeometry x="440" y="610" width="132" height="46.2" as="geometry" />
        </mxCell>
      </root>
    </mxGraphModel>
  </diagram>
</mxfile>
